<svg width="34" height="111" viewBox="0 0 34 111" fill="none" xmlns="http://www.w3.org/2000/svg">
<path d="M16 0.5C13.5 7 8.90002 24.6 10.5 43" stroke="#20115C" stroke-opacity="0.44"/>
<path d="M18.0408 74.3491C18.9199 75.3841 19.5585 76.1486 19.9567 76.6423C20.4 77.0959 20.7005 77.4343 20.8583 77.6573C21.0586 77.8829 21.2001 78.0195 21.2828 78.0671C21.3655 78.1148 21.507 78.2514 21.7073 78.4769C21.9077 78.7025 22.2282 79.0634 22.669 79.5597C23.1123 80.0133 23.7735 80.7577 24.6525 81.7928C25.3738 82.6048 25.9384 83.5358 26.3464 84.5857C26.7996 85.5956 26.6939 86.6579 26.0296 87.7726C25.6535 88.3487 25.245 88.7519 24.8039 88.9823C24.3654 89.17 23.8919 89.2275 23.3833 89.1546C22.9173 89.0843 22.415 88.905 21.8764 88.6166C21.3805 88.3308 20.8883 87.9811 20.3999 87.5676C19.4631 86.7855 18.5752 85.8995 17.7363 84.9095C16.8998 83.8769 16.2199 83.0887 15.6964 82.5448C15.3358 82.1388 15.1167 81.8694 15.0391 81.7366C14.9589 81.6464 14.8775 81.5774 14.7948 81.5298C14.7147 81.4396 14.6346 81.3493 14.5544 81.2591C14.2739 80.9433 13.9721 80.6263 13.649 80.3079C13.326 79.9896 13.0041 79.65 12.6836 79.2891L12.5361 81.7808C12.5083 82.2493 12.5095 82.5913 12.5394 82.8067C12.5142 83.2327 12.474 83.5508 12.4188 83.7613C12.2633 84.2222 12.173 84.6657 12.1477 85.0916C12.0925 85.302 12.0373 85.5125 11.9821 85.7229C11.9295 85.8908 11.8542 86.0786 11.7564 86.2866C11.7088 86.3692 11.6624 86.4306 11.6173 86.4707C11.6148 86.5132 11.611 86.5771 11.606 86.6623C11.5583 86.745 11.512 86.8064 11.4669 86.8464C11.4643 86.889 11.4393 86.9516 11.3916 87.0343C11.1534 87.4476 10.7888 87.8321 10.2976 88.1877C9.46057 88.6083 8.45209 88.6768 7.27212 88.3932C6.6408 88.2277 6.16486 87.9644 5.84429 87.6035C5.47609 87.3252 5.24197 86.9481 5.14193 86.472C5.06935 86.254 4.99677 86.036 4.92419 85.818C4.89673 85.5599 4.84671 85.3219 4.77413 85.1039C4.70155 84.8859 4.67031 84.6917 4.68039 84.5213C4.693 84.3084 4.70308 84.138 4.71065 84.0102L6.86257 47.6579C6.8777 47.4023 6.89283 47.1468 6.90795 46.8912C6.92308 46.6356 6.95951 46.3814 7.01723 46.1283C7.07495 45.8753 7.1314 45.6436 7.1866 45.4331C7.28692 45.1826 7.38597 44.9534 7.48376 44.7455C7.67934 44.3296 7.91247 44.0015 8.18315 43.7611C8.40872 43.5607 8.6305 43.4243 8.84851 43.3517C9.11162 43.239 9.35218 43.1464 9.57018 43.0738C9.78567 43.0439 10.0212 43.0364 10.2767 43.0516C10.5774 43.0266 10.8555 43.0217 11.1111 43.0368C11.7074 43.0721 12.2936 43.2778 12.8697 43.6538C13.4007 44.0699 13.7763 44.5837 13.9966 45.1951C14.2894 46.0245 14.4131 46.8226 14.3677 47.5892C14.3851 48.0177 14.3886 48.6804 14.3783 49.5773C14.3704 50.4317 14.3539 51.0718 14.3287 51.4978L14.3136 51.7533C14.273 53.1614 14.2148 54.5043 14.1392 55.7821C14.0636 57.0598 13.9816 58.4441 13.8934 59.9348C13.7625 61.423 13.6568 62.8486 13.5761 64.2115C13.4979 65.5319 13.4198 66.8522 13.3416 68.1726L13.3 68.8753C13.6609 68.5548 14.0206 68.2555 14.379 67.9775C14.7373 67.6996 15.0757 67.399 15.394 67.0759C15.5719 66.9582 15.7511 66.8193 15.9316 66.659L16.676 65.9978C17.2624 65.4769 18.0306 64.7744 18.9805 63.8903C19.933 62.9636 20.9204 62.1673 21.9429 61.5012C23.0531 60.7976 24.103 60.3896 25.0927 60.2772C26.125 60.1673 26.9466 60.7289 27.5575 61.9618C28.0857 63.1471 28.064 64.2357 27.4924 65.2276C26.9659 66.1795 26.2941 67.0587 25.477 67.8651C24.482 68.7893 23.7363 69.4718 23.2401 69.9125C22.7464 70.3107 22.3867 70.61 22.1612 70.8104C21.9381 70.9681 21.7827 71.0658 21.695 71.1033C21.6073 71.1409 21.4507 71.2598 21.2251 71.4602C21.0447 71.6205 20.7063 71.921 20.2101 72.3618C19.7589 72.7625 19.0359 73.4249 18.0408 74.3491Z" fill="url(#paint0_linear_9_4)"/>
<defs>
<linearGradient id="paint0_linear_9_4" x1="30.7162" y1="38.8811" x2="1.84126" y2="39.0856" gradientUnits="userSpaceOnUse">
<stop stop-color="#2809A0"/>
<stop offset="1" stop-color="#20115C"/>
</linearGradient>
</defs>
</svg>
