<svg width="86" height="118" viewBox="0 0 86 118" fill="none" xmlns="http://www.w3.org/2000/svg">
<path d="M45 1C49 7 55.7 24.1 50.5 44.5C45.3 64.9 39.3334 78.3333 37 82.5M23.5 1C25.5 2.83333 28.9 7.2 26.5 10C23.5 13.5 17.5 13.5 20.5 19.5C23.5 25.5 28 25 26.5 30C25 35 19 35.5 20.5 40.5C22 45.5 25 45.5 23.5 49.5C22.3 52.7 21.6667 54.5 21.5 55" stroke="#20115C" stroke-opacity="0.44"/>
<path d="M30.0346 85.3963C29.6069 84.7861 29.3773 84.0967 29.3459 83.3282C29.2986 82.52 29.4335 81.7079 29.7506 80.892C29.9171 80.5038 30.1747 80.1711 30.5234 79.8939C30.8563 79.5771 31.2406 79.3316 31.6764 79.1574C32.1519 78.9674 32.6986 78.8407 33.3166 78.7775C33.8791 78.6905 34.3466 78.7105 34.7189 78.8374C35.2022 79.0118 35.6458 79.317 36.0497 79.7528C36.4537 80.1887 36.7903 80.6285 37.0596 81.0723C37.2892 81.5319 37.4753 81.94 37.6178 82.2966C37.7445 82.6135 37.8157 82.7918 37.8315 82.8314L42.5464 94.4558C42.776 94.9154 43.0136 95.3948 43.2591 95.894C43.4491 96.3695 43.6193 96.8528 43.7697 97.3441C43.8805 97.8512 43.9437 98.3543 43.9594 98.8535C43.9196 99.3289 43.8126 99.8082 43.6381 100.291C43.3765 100.901 43.0951 101.404 42.7939 101.801C42.4531 102.212 42.0053 102.529 41.4507 102.751C40.7771 103.02 40.0522 103.103 39.2757 103C38.4438 102.873 37.7745 102.52 37.2675 101.942C36.5784 101.252 36.0795 100.464 35.7708 99.5761C35.4066 98.6649 35.0226 97.7615 34.6187 96.8661L30.0346 85.3963Z" fill="url(#paint0_linear_9_5)"/>
<path d="M25.432 59C25.432 60.1093 25.0267 61.048 24.216 61.816C23.448 62.6267 22.5094 63.032 21.4 63.032C20.2907 63.032 19.3307 62.6267 18.52 61.816C17.752 61.048 17.368 60.1093 17.368 59C17.368 57.8907 17.752 56.9307 18.52 56.12C19.3307 55.3093 20.2907 54.904 21.4 54.904C22.5094 54.904 23.448 55.3093 24.216 56.12C25.0267 56.9307 25.432 57.8907 25.432 59Z" fill="url(#paint1_linear_9_5)"/>
<defs>
<linearGradient id="paint0_linear_9_5" x1="8.4268" y1="87.8817" x2="22.4262" y2="116.605" gradientUnits="userSpaceOnUse">
<stop stop-color="#2809A0"/>
<stop offset="1" stop-color="#20115C"/>
</linearGradient>
<linearGradient id="paint1_linear_9_5" x1="27.0034" y1="8.12499" x2="13.5801" y2="8.53823" gradientUnits="userSpaceOnUse">
<stop stop-color="#2809A0"/>
<stop offset="1" stop-color="#20115C"/>
</linearGradient>
</defs>
</svg>
