<svg width="45" height="125" viewBox="0 0 45 125" fill="none" xmlns="http://www.w3.org/2000/svg">
<path d="M19.1997 1C28.4527 28.75 11.5796 33.8889 14.301 53.4167C16.4782 69.0389 18.474 72.088 19.1997 75" stroke="#20115C" stroke-opacity="0.44"/>
<path d="M13.2274 75.6089C14.4364 74.8432 15.7284 74.262 17.1034 73.8654C18.4742 73.4264 19.8473 73.223 21.2229 73.2552C22.6366 73.2406 24.0103 73.466 25.344 73.9313C26.6734 74.3542 27.9437 75.0403 29.1549 75.9897C30.3704 76.9816 31.3419 78.1054 32.0695 79.3612C32.7971 80.6169 33.3699 82.0384 33.788 83.6257C34.0696 84.7122 34.4487 85.703 34.9254 86.5982C35.402 87.4934 35.8999 88.3864 36.419 89.2773C36.9805 90.1639 37.4996 91.0548 37.9762 91.95C38.4953 92.8409 38.9338 93.7828 39.2917 94.7758C39.6029 95.7306 39.6147 96.6944 39.3273 97.6669C39.078 98.5928 38.4122 99.2177 37.33 99.5418C36.7062 99.7336 36.0864 99.7535 35.4706 99.6015C34.8929 99.4027 34.3491 99.1147 33.8392 98.7375C33.325 98.3178 32.851 97.8727 32.4174 97.402C32.0219 96.8845 31.6519 96.4074 31.3075 95.9705C30.4601 97.3429 29.4999 98.448 28.4269 99.2857C27.3496 100.081 26.0151 100.666 24.4235 101.042C23.0823 101.349 21.7919 101.523 20.5523 101.563C19.3127 101.603 17.9731 101.503 16.5335 101.262C14.6609 100.98 13.0723 100.326 11.7676 99.3007C10.5011 98.2282 9.47202 96.9601 8.68049 95.4964C7.9271 93.986 7.43888 92.3415 7.21584 90.5629C6.99279 88.7843 7.0266 87.0012 7.31725 85.2135C7.67935 82.861 8.38159 80.9029 9.42398 79.3392C10.4664 77.7756 11.7342 76.5321 13.2274 75.6089ZM15.5739 82.8976C15.0398 83.5521 14.6438 84.2998 14.3859 85.1407C14.128 85.9817 14.0018 86.8521 14.0072 87.7522C14.055 88.6479 14.2302 89.5308 14.5327 90.4007C14.8353 91.2706 15.2544 92.0216 15.7902 92.6534C16.2749 93.2047 17.0481 93.641 18.1099 93.9623C19.1674 94.2412 20.2523 94.3672 21.3645 94.3403C22.6466 94.2962 23.7159 93.8448 24.5724 92.9861C25.4713 92.1231 26.0962 91.0949 26.4471 89.9014C26.8361 88.6613 26.9427 87.3854 26.767 86.0737C26.5869 84.7196 26.1014 83.5252 25.3104 82.4903C24.7193 81.7353 23.9799 81.2098 23.0922 80.9138C22.247 80.6134 21.3574 80.5106 20.4236 80.6052C19.4854 80.6573 18.5665 80.9005 17.667 81.3347C16.8057 81.7221 16.108 82.2431 15.5739 82.8976Z" fill="url(#paint0_linear_9_3)"/>
<defs>
<linearGradient id="paint0_linear_9_3" x1="34.8082" y1="49.3695" x2="-2.61307" y2="56.5021" gradientUnits="userSpaceOnUse">
<stop stop-color="#2809A0"/>
<stop offset="1" stop-color="#20115C"/>
</linearGradient>
</defs>
</svg>
