<svg width="65" height="112" viewBox="0 0 65 112" fill="none" xmlns="http://www.w3.org/2000/svg">
<path d="M24 1C18.4 33 19.6667 49 21 53" stroke="#20115C" stroke-opacity="0.44"/>
<path d="M47.1046 76.998C46.729 78.3134 46.3345 79.5542 45.9212 80.7205C45.5221 81.8465 45.0543 83.0388 44.5178 84.2972C44.3467 84.7798 44.1543 85.3227 43.9405 85.9259C43.7268 86.5291 43.4799 87.098 43.1999 87.6325C42.9199 88.167 42.5939 88.64 42.2218 89.0513C41.8497 89.4626 41.4127 89.7378 40.9107 89.8768C40.3141 90.0274 39.6928 90.0562 39.0468 89.9631C38.4151 89.8297 37.8663 89.59 37.4005 89.2438C36.9347 88.8977 36.5791 88.4321 36.3338 87.8472C36.1286 87.2766 36.1484 86.582 36.3933 85.7634C36.9282 83.8707 37.5235 81.9994 38.1792 80.1495C38.507 79.2246 38.8004 78.3327 39.0595 77.4739C39.3588 76.6294 39.7994 75.4501 40.3812 73.9362C40.652 73.1721 40.8981 72.2861 41.1195 71.2781C41.3552 70.23 41.303 69.4193 40.9629 68.8461C40.715 68.3961 40.377 68.0726 39.9489 67.8756C39.535 67.6384 39.0784 67.5219 38.579 67.5259C38.1198 67.5443 37.651 67.7176 37.1725 68.046C36.7082 68.3341 36.3018 68.7785 35.9531 69.3792C35.7678 69.902 35.5553 70.4378 35.3155 70.9866C35.1302 71.5094 34.9722 72.0192 34.8414 72.516C34.4255 73.8172 34.0109 75.0509 33.5976 76.2172C33.1985 77.3432 32.7508 78.5425 32.2545 79.8152C32.029 80.3238 31.8094 80.8796 31.5956 81.4829C31.422 82.1004 31.2082 82.7036 30.9542 83.2926C30.7145 83.8414 30.4085 84.3214 30.0364 84.7327C29.7045 85.1583 29.2675 85.4335 28.7254 85.5582C28.1287 85.7089 27.5347 85.7247 26.9432 85.6056C26.4061 85.4605 25.9319 85.2019 25.5206 84.8298C25.1637 84.4317 24.8898 83.9273 24.6989 83.3164C24.5482 82.7198 24.5953 82.0122 24.8401 81.1936C25.0875 80.2402 25.3265 79.3743 25.5571 78.5959C25.8421 77.7916 26.1414 76.9471 26.455 76.0623C26.7828 75.1374 27.1379 74.1994 27.5201 73.2485C27.9167 72.2573 28.2386 71.285 28.486 70.3316C28.5858 70.0501 28.6797 69.7212 28.7678 69.345C28.9103 68.9429 29.0327 68.5336 29.135 68.1172C29.2775 67.715 29.3727 67.3187 29.4206 66.9283C29.5229 66.5118 29.5565 66.1616 29.5213 65.8776C29.3991 65.2005 28.9443 64.6319 28.1568 64.1717C27.4095 63.7258 26.7044 63.5439 26.0416 63.6258C25.3788 63.7078 24.8283 63.9201 24.39 64.2627C23.9517 64.6053 23.5796 65.0166 23.2737 65.4967C22.9677 65.9767 22.7079 66.5184 22.4941 67.1216C22.2946 67.6846 22.1021 68.2275 21.9169 68.7503C20.9904 71.3644 20.1852 73.6366 19.501 75.5669C18.8714 77.4713 18.1287 78.9282 17.273 79.9377C16.8581 80.4697 16.272 80.7825 15.5145 80.8762C14.7972 80.9841 14.0767 80.9098 13.3528 80.6533C12.6691 80.411 12.0827 80.0221 11.5934 79.4866C11.1042 78.951 10.8802 78.3058 10.9215 77.5509C10.9576 77.0658 11.0579 76.3997 11.2223 75.5526C11.4411 74.6796 11.7086 73.7332 12.0247 72.7136C12.3408 71.6939 12.677 70.6814 13.0333 69.676C13.4039 68.6304 13.7389 67.6853 14.0382 66.8408L17.1167 58.1542C17.4043 57.215 17.7405 56.2025 18.1254 55.1166C18.5102 54.0308 19.0202 53.1025 19.6555 52.3318C20.2078 51.6675 20.8212 51.3417 21.4957 51.3544C22.1845 51.3269 22.8435 51.4472 23.4727 51.7155C24.1965 51.9721 24.6883 52.3727 24.9479 52.9174C25.262 53.4361 25.4199 54.0126 25.4214 54.6469C25.4372 55.2409 25.344 55.8869 25.142 56.5848C24.9541 57.2425 24.7734 57.8801 24.5999 58.4976C25.3986 57.649 26.2135 57.0099 27.0448 56.5802C27.9306 56.1246 28.9922 56.0029 30.2297 56.2152C33.4052 56.7068 35.5071 58.3118 36.5355 61.0302C37.6249 60.5109 38.8855 60.2108 40.3175 60.1298C41.411 60.1099 42.4533 60.2983 43.4444 60.6948C44.4498 61.0511 45.3307 61.567 46.0872 62.2425C46.8839 62.9323 47.523 63.7473 48.0046 64.6875C48.5264 65.6419 48.8375 66.6802 48.9378 67.8021C49.0849 69.3028 48.9208 70.8516 48.4454 72.4485C47.97 74.0455 47.523 75.5619 47.1046 76.998Z" fill="url(#paint0_linear_9_2)"/>
<defs>
<linearGradient id="paint0_linear_9_2" x1="58.8214" y1="42.9957" x2="18.9046" y2="32.9668" gradientUnits="userSpaceOnUse">
<stop stop-color="#2809A0"/>
<stop offset="1" stop-color="#20115C"/>
</linearGradient>
</defs>
</svg>
